<?xml version="1.0" standalone="no"?>
<!DOCTYPE svg PUBLIC "-//W3C//DTD SVG 20010904//EN"
 "http://www.w3.org/TR/2001/REC-SVG-20010904/DTD/svg10.dtd">
<svg version="1.0" xmlns="http://www.w3.org/2000/svg"
 width="584.000000pt" height="584.000000pt" viewBox="0 0 584.000000 584.000000"
 preserveAspectRatio="xMidYMid meet">

<g transform="translate(0.000000,584.000000) scale(0.100000,-0.100000)"
fill="#4a6dff" stroke="none">
<path d="M2682 5593 c-222 -18 -457 -71 -697 -157 -246 -88 -554 -262 -744
-421 -360 -301 -624 -657 -789 -1065 -87 -217 -141 -419 -172 -654 -26 -196
-27 -188 12 -184 l33 3 17 140 c23 187 48 297 114 501 118 365 322 704 597
990 145 151 342 310 507 410 107 64 141 83 230 126 482 231 1077 312 1585 213
177 -35 277 -63 425 -117 356 -132 664 -331 941 -607 246 -246 430 -518 554
-818 37 -92 37 -92 69 -86 17 3 32 6 33 7 1 1 -13 38 -31 82 -51 124 -149 316
-212 412 -50 78 -150 219 -164 232 -3 3 -32 37 -64 75 -96 114 -264 274 -388
370 -534 412 -1175 602 -1856 548z"/>
<path d="M4355 3720 c-77 -31 -57 -140 25 -140 34 0 80 49 80 86 0 49 -52 76
-105 54z"/>
<path d="M5538 3655 c-182 -46 -358 -345 -294 -500 44 -105 197 -59 319 95
l28 35 -3 -140 c-3 -128 -5 -144 -28 -185 -45 -79 -107 -89 -252 -39 -49 17
-96 28 -104 25 -21 -8 -17 -50 9 -74 34 -32 119 -71 179 -82 126 -24 222 30
281 157 21 45 22 58 18 233 -7 284 -7 301 2 361 7 51 6 59 -15 83 -30 35 -81
46 -140 31z m42 -110 c30 -36 -27 -189 -100 -269 -22 -24 -57 -52 -77 -61 -31
-15 -37 -15 -50 -2 -40 39 31 210 121 295 56 53 84 63 106 37z"/>
<path d="M4840 3478 c-56 -29 -98 -90 -131 -189 l-24 -74 -6 101 c-5 104 -23
154 -53 154 -52 0 -78 -48 -64 -119 5 -25 13 -114 18 -198 4 -83 13 -161 20
-172 8 -16 20 -21 50 -21 38 0 40 2 50 43 22 88 63 196 104 272 70 133 94 129
146 -26 20 -57 43 -118 53 -135 31 -59 108 -68 161 -19 47 43 43 110 -5 84
-51 -27 -69 -2 -119 159 -27 85 -78 149 -125 158 -20 3 -45 -3 -75 -18z"/>
<path d="M4316 3414 c-13 -13 -16 -44 -16 -182 0 -178 12 -283 36 -319 21 -33
78 -32 100 2 15 23 15 28 -2 72 -15 40 -18 80 -19 236 0 204 -1 207 -57 207
-15 0 -34 -7 -42 -16z"/>
<path d="M3953 3390 c-48 -25 -78 -60 -120 -145 -67 -132 -83 -277 -42 -363
63 -128 267 -95 380 62 62 84 20 117 -58 45 -82 -76 -185 -103 -217 -57 -32
46 -15 177 37 291 31 68 59 87 81 55 9 -12 16 -28 16 -34 0 -17 34 -44 56 -44
47 0 59 62 24 130 -36 71 -92 92 -157 60z"/>
<path d="M2271 3365 c-28 -37 -35 -124 -28 -375 8 -306 40 -473 92 -486 32 -8
63 11 71 43 4 15 -5 75 -22 147 -24 106 -28 141 -28 286 -1 91 1 213 4 271 4
81 2 110 -9 122 -20 25 -57 21 -80 -8z"/>
<path d="M3371 3212 c-47 -25 -88 -86 -121 -178 l-27 -77 -6 97 c-6 107 -22
146 -60 146 -59 -1 -71 -37 -52 -164 8 -57 15 -142 15 -189 0 -123 16 -157 73
-157 31 0 28 -6 76 145 35 109 106 253 133 269 28 17 54 -18 83 -112 48 -151
76 -192 134 -192 48 0 81 18 103 56 23 39 14 69 -16 59 -61 -19 -62 -19 -83
32 -11 26 -28 73 -38 103 -51 160 -120 212 -214 162z"/>
<path d="M2745 3161 c-116 -54 -227 -258 -227 -416 0 -122 69 -182 166 -145
41 15 116 90 150 150 l30 54 9 -34 c16 -63 41 -112 64 -127 48 -32 137 30 103
72 -7 8 -19 15 -27 15 -36 0 -66 134 -75 340 -3 50 -5 55 -28 58 -13 2 -37 15
-53 28 -34 29 -59 30 -112 5z m81 -116 c24 -36 12 -103 -32 -193 -56 -116
-139 -186 -158 -136 -21 54 12 183 68 273 54 85 92 102 122 56z"/>
<path d="M1885 3013 c-103 -54 -185 -206 -185 -343 0 -206 145 -295 316 -195
74 43 149 148 142 198 -6 42 -37 32 -95 -33 -89 -98 -168 -126 -218 -75 -14
13 -25 29 -25 34 0 6 27 25 61 41 117 59 199 172 199 274 0 41 -5 53 -34 82
-30 30 -40 34 -82 34 -27 -1 -62 -8 -79 -17z m91 -98 c14 -22 15 -29 3 -58
-24 -58 -119 -147 -158 -147 -14 0 -4 52 22 112 18 45 85 118 107 118 5 0 17
-11 26 -25z"/>
<path d="M455 2933 c-11 -2 -72 -20 -136 -39 -64 -19 -133 -34 -153 -34 -47 0
-92 -40 -81 -73 18 -56 25 -129 34 -347 6 -129 15 -251 21 -271 12 -41 53 -65
94 -55 33 8 40 37 25 98 -6 28 -12 85 -13 126 l-1 75 145 48 c107 35 151 55
168 74 26 31 27 39 6 59 -24 24 -52 20 -196 -29 -156 -52 -146 -58 -147 87 -1
89 1 98 20 109 42 22 136 50 218 64 47 9 93 23 103 32 22 20 24 69 2 77 -17 7
-78 6 -109 -1z"/>
<path d="M1387 2930 c-71 -22 -149 -115 -187 -224 -23 -67 -27 -182 -9 -237
38 -112 132 -154 253 -113 93 32 207 168 192 229 -10 41 -40 30 -85 -30 -41
-54 -101 -97 -154 -109 -46 -11 -110 35 -91 65 3 5 28 21 56 35 62 32 147 115
173 169 67 142 -11 256 -148 215z m71 -132 c2 -29 -4 -48 -27 -82 -27 -39
-111 -106 -133 -106 -14 0 2 70 29 127 28 60 76 105 107 101 16 -2 22 -11 24
-40z"/>
<path d="M985 2830 c-53 -21 -119 -121 -165 -247 -12 -35 -25 -63 -28 -63 -3
0 -2 52 1 115 6 107 5 117 -14 136 -29 29 -82 10 -99 -36 -20 -53 34 -428 68
-475 25 -33 65 -37 91 -11 18 18 21 34 21 97 0 119 34 225 108 336 27 41 64
57 86 38 8 -6 30 -10 48 -8 30 3 33 6 36 39 3 30 -2 41 -28 63 -33 27 -83 34
-125 16z"/>
<path d="M5494 2672 c-5 -4 -16 -45 -23 -92 -94 -642 -429 -1228 -939 -1642
-351 -285 -744 -461 -1202 -537 -258 -43 -542 -49 -760 -16 -14 2 -45 6 -70
10 -47 7 -103 19 -255 56 -302 72 -693 271 -962 491 -188 152 -415 401 -528
578 -26 41 -60 94 -75 117 -15 24 -55 99 -89 168 -51 104 -65 125 -84 125 -49
0 -47 -12 30 -165 435 -869 1303 -1430 2266 -1464 710 -25 1370 214 1889 682
451 407 753 972 843 1574 8 57 15 107 15 113 0 12 -40 13 -56 2z"/>
<path d="M3775 2002 c-31 -19 -74 -75 -96 -125 -16 -35 -29 -18 -29 36 0 48
-15 77 -39 77 -36 0 -44 -24 -31 -92 7 -35 14 -160 17 -278 4 -181 7 -217 21
-227 20 -17 27 -16 45 2 12 12 14 37 10 137 -5 102 -3 121 8 111 33 -32 97 -7
158 63 83 95 107 239 47 291 -33 28 -70 29 -111 5z m66 -79 c27 -71 -57 -233
-120 -233 -25 0 -41 20 -41 50 0 34 53 140 90 180 35 37 57 38 71 3z"/>
<path d="M2786 1937 c-8 -12 -33 -74 -55 -137 -22 -63 -60 -166 -86 -228 -49
-121 -49 -142 1 -142 13 0 24 1 24 3 0 1 11 28 24 61 l24 59 92 38 c51 21 98
40 105 41 7 2 31 -21 53 -51 40 -53 85 -91 109 -91 13 0 43 27 43 40 0 5 -23
30 -51 57 -62 59 -172 234 -217 346 -14 33 -46 36 -66 4z m77 -179 l36 -66
-71 -26 c-39 -15 -72 -25 -74 -23 -2 1 11 47 27 101 17 54 34 94 38 90 4 -5
24 -39 44 -76z"/>
<path d="M3324 1908 c-20 -17 -50 -57 -67 -87 l-32 -56 -5 60 c-6 71 -13 85
-45 85 -33 0 -39 -29 -24 -115 6 -39 15 -162 18 -275 l6 -205 30 0 30 0 -1
128 c0 70 1 127 3 127 2 0 12 -5 22 -11 59 -38 181 72 217 198 42 145 -52 239
-152 151z m81 -108 c0 -57 -4 -72 -33 -116 -34 -54 -72 -79 -103 -69 -62 20
49 262 116 253 18 -3 20 -10 20 -68z"/>
</g>
</svg>
